<?xml version="1.0" standalone="no"?>
<!DOCTYPE svg PUBLIC "-//W3C//DTD SVG 20010904//EN"
 "http://www.w3.org/TR/2001/REC-SVG-20010904/DTD/svg10.dtd">
<svg version="1.0" xmlns="http://www.w3.org/2000/svg"
 width="512.000000pt" height="512.000000pt" viewBox="0 0 512.000000 512.000000"
 preserveAspectRatio="xMidYMid meet">
<metadata>
Created by potrace 1.11, written by Peter Selinger 2001-2013
</metadata>
<g transform="translate(0.000000,512.000000) scale(0.100000,-0.100000)"
fill="#000000" stroke="none">
<path d="M2347 5104 c-1 -1 -36 -5 -77 -8 -179 -16 -454 -85 -650 -163 -644
-255 -1163 -769 -1424 -1410 -62 -152 -123 -359 -145 -493 -6 -36 -13 -75 -15
-87 -3 -12 -8 -53 -11 -90 -4 -37 -9 -79 -11 -93 -5 -29 -5 -353 0 -390 2 -14
7 -61 11 -105 4 -44 8 -82 10 -85 2 -3 6 -26 10 -50 40 -277 194 -687 335
-897 17 -24 30 -46 30 -49 0 -23 214 -294 308 -389 263 -269 514 -441 867
-595 68 -30 277 -98 311 -102 l28 -3 1 1145 c1 1232 0 1187 53 1260 35 46 58
65 112 92 41 20 61 23 223 24 98 1 181 5 184 8 7 7 12 2454 5 2473 -3 9 -27
12 -78 11 -41 -1 -75 -3 -77 -4z m-232 -1489 c126 -21 230 -143 240 -282 18
-232 -226 -399 -438 -299 -144 69 -213 240 -157 389 25 65 95 143 155 171 39
19 119 35 145 31 8 -2 33 -6 55 -10z"/>
<path d="M2939 5057 c0 -18 -1 -624 -2 -1347 l-2 -1315 -21 -46 c-33 -70 -112
-140 -177 -156 -12 -3 -100 -6 -196 -7 -154 -1 -175 -3 -180 -18 -5 -13 -6
-2019 -2 -2135 l1 -22 233 3 c127 2 250 7 272 11 22 3 81 13 130 21 50 8 108
20 130 26 22 6 53 12 69 15 62 10 296 93 421 150 566 256 1027 721 1280 1291
73 166 149 407 171 550 3 19 7 43 9 52 2 10 7 40 11 67 3 26 9 57 11 68 3 11
7 126 9 255 4 278 -4 348 -72 678 -10 47 -85 269 -116 342 -46 107 -127 268
-158 315 -15 22 -29 45 -31 50 -11 27 -93 141 -175 245 -293 369 -678 647
-1119 808 -110 40 -314 96 -390 107 -22 4 -55 10 -72 15 -32 8 -33 7 -34 -23z
m-18 -3283 c85 -27 165 -114 189 -204 51 -189 -78 -373 -275 -393 -52 -6 -140
17 -187 48 -145 96 -187 286 -95 425 86 129 219 174 368 124z m782 -7 c168
-77 233 -265 146 -427 -118 -221 -436 -216 -546 8 -24 49 -28 69 -28 142 1 68
5 94 23 127 81 154 255 219 405 150z m748 7 c54 -17 121 -71 155 -125 71 -114
60 -264 -28 -363 -128 -146 -333 -148 -461 -6 -64 70 -81 116 -79 218 0 48 7
77 27 117 77 151 223 211 386 159z"/>
</g>
</svg>
